<svg width="256px" height="348px" viewBox="0 0 256 348" version="1.1" xmlns="http://www.w3.org/2000/svg" xmlns:xlink="http://www.w3.org/1999/xlink" preserveAspectRatio="xMidYMid">
	<g>
		<path d="M3.5,188.5 C4.5,198.5 14.5,193.5 19.5,190.5 C23.5,187.5 24.5,189.5 25.5,183.5 C25.5,179.5 25.5,176.5 25.6,172.5 C18.5,171.5 11.5,173.5 6.5,177.5 C3.5,179.5 -1.5,185.5 3.5,188.5" fill="#F6D2A2"></path>
		<path d="M208.5,314.5 C216.5,319.5 230.5,333.5 218.5,341.5 C207.5,351.5 200.5,329.5 190.5,326.5 C195.5,320.5 200.5,315.5 208.5,314.5 L208.5,314.5 L208.5,314.5 Z" fill="#F6D2A2"></path>
		<path d="M67.5,330.5 C58.5,332.5 52.5,340.5 45.5,344.5 C37.5,349.5 35.5,343.5 34.5,342.5 C33.5,341.5 33.5,342.5 31.5,341.5 C24.5,330.5 38.5,322.5 45.5,317.5 C55.5,315.5 62.5,324.5 67.5,330.5 L67.5,330.5 L67.5,330.5 Z" fill="#F6D2A2"></path>
		<path d="M251.5,186.5 C251.5,197.5 241.5,192.5 236.5,189.5 C232.5,186.5 230.5,188.5 230.5,182.5 C230.5,178.5 229.5,174.5 230.5,170.5 C236.5,170.5 243.5,171.5 249.5,175.5 C252.5,177.5 257.5,184.5 251.5,186.5" fill="#F6D2A2"></path>
		<path d="M224.5,61.5 C260.5,49.5 232.5,0.5 201.5,22.5 C181.5,4.5 153.5,1.5 123.5,1.5 C95.5,3.5 67.5,8.5 48.5,25.5 C17.5,5.5 -10.5,53.5 25.5,65.5 C15.5,105.5 26.5,145.5 25.5,185.5 C23.5,221.5 14.5,269.5 34.5,302.5 C51.5,329.5 87.5,339.5 118.5,340.5 C156.5,342.5 203.5,332.8 222.5,295.5 C240.5,259.5 235.5,215.5 232.5,177.5 C230.5,138.5 234.5,99.5 224.5,61.5 L224.5,61.5 Z" fill="#69D7E2"></path>
		<path d="M254.5,180.5 C253.5,178.5 251.5,176.5 249.5,175.5 C245.5,171.5 239.5,169.5 233.5,169.5 C233.5,163.5 232.5,156.5 232.5,148.5 L232.5,140.5 C232.5,115.5 232.5,105.5 231.5,91.5 C230.5,81.5 228.5,71.5 226.5,62.5 C234.5,59.5 239.5,54.5 241.5,47.5 C243.5,41.5 242.5,34.5 239.5,28.5 C235.5,22.5 230.5,18.5 223.5,16.5 C216.5,14.5 208.5,15.5 201.5,20.5 C195.5,15.5 187.5,10.5 179.5,7.5 C164.5,2.5 147.5,0.5 123.5,0.5 L123.5,1.5 L123.5,0.5 C98.5,2.5 80.5,6.5 64.5,13.5 C58.5,16.5 53.5,20.5 48.5,24.5 C41.5,19.5 33.5,18.5 26.5,20.5 C19.5,22.5 14.5,27.5 10.5,33.5 C7.5,39.5 6.5,46.5 8.5,52.5 C11.5,58.5 16.5,63.5 24.5,66.5 C21.5,76.5 20.5,86.5 20.5,98.5 C20.5,110.5 20.5,119.5 22.5,139.5 C23.5,155.5 24.5,162.5 24.5,171.5 C17.5,170.5 10.5,172.5 5.5,176.5 C3.5,177.5 1.5,179.5 1.5,181.5 C-0.5,184.5 0.5,187.5 2.5,188.5 C3.5,193.5 5.5,195.5 10.5,195.5 C13.5,195.5 16.5,193.5 19.5,191.5 C20.5,190.5 21.5,190.5 21.5,190.5 C22.5,189.5 22.5,189.5 22.5,189.5 C22.5,189.5 23.5,189.5 23.5,189.5 C23.5,189.5 24.5,189.5 24.5,189.5 C24.5,193.5 23.5,198.5 22.5,209.5 C21.5,222.5 21.5,229.5 21.5,236.5 C20.5,265.5 23.5,286.5 33.5,302.5 C36.5,307.5 40.5,312.5 45.5,316.5 C44.5,317.5 40.5,319.5 39.5,320.5 C35.5,323.5 32.5,326.5 30.5,329.5 C28.5,333.5 28.5,337.5 30.5,341.5 L31.5,341.5 L31.5,341.5 C32.5,342.5 32.5,343.5 33.5,343.5 L33.5,343.5 L33.5,343.5 L33.5,343.5 C34.5,343.5 34.5,343.5 34.5,343.5 C34.5,344.5 34.5,344.5 35.5,344.5 C37.5,347.5 41.5,348.5 45.5,345.5 C48.5,344.5 50.5,342.5 53.5,339.5 C53.5,339.5 53.5,339.5 54.5,339.5 C60.5,334.5 63.5,332.5 67.5,331.5 L69.5,331.5 C69.5,331.5 70.5,331.5 71.5,332.5 C85.5,337.5 101.5,340.5 118.5,341.5 C139.5,342.5 160.5,339.5 178.5,333.5 C182.5,331.5 187.5,329.5 191.5,327.5 C193.5,328.5 196.5,330.5 200.5,335.5 C200.5,335.5 200.5,335.5 200.5,335.5 C200.5,335.5 200.5,336.5 200.5,336.5 C201.5,336.5 201.5,336.5 201.5,336.5 C204.5,340.5 207.5,342.5 209.5,343.5 C212.5,345.5 216.5,344.5 219.5,341.5 C225.5,337.5 225.5,332.5 221.5,326.5 C219.5,321.5 214.5,316.5 209.5,313.5 C215.5,308.5 219.5,302.5 223.5,295.5 C232.5,276.5 236.5,254.5 236.5,225.5 C236.5,215.5 235.5,206.5 234.5,189.5 L234.5,189.5 C235.5,189.5 235.5,189.5 236.5,190.5 C239.5,192.5 242.5,193.5 245.5,194.5 C249.5,194.5 252.5,192.5 252.5,187.5 L252.5,187.5 C255.5,186.5 255.5,183.5 254.5,180.5 L254.5,180.5 Z M222.5,18.5 C228.5,19.5 234.5,24.5 237.5,29.5 C240.5,35.5 241.5,41.5 239.5,47.5 C237.5,52.5 232.5,57.5 225.5,60.5 C223.5,55.5 222.5,49.5 220.5,44.5 C223.5,42.5 224.5,39.5 222.5,34.5 C219.5,30.5 215.5,29.5 211.5,31.5 C209.5,27.5 206.5,24.5 203.5,22.5 C209.5,17.5 216.5,16.5 222.5,18.5 L222.5,18.5 Z M10.5,51.5 C8.5,46.5 9.5,40.5 12.5,34.5 C15.5,29.5 20.5,24.5 26.5,22.5 C33.5,21.5 40.5,21.5 46.5,25.5 C43.5,29.5 39.5,33.5 36.5,37.5 C31.5,35.5 26.5,34.5 23.5,40.5 C20.5,45.5 23.5,49.5 28.5,52.5 C27.5,54.5 27.5,55.5 26.5,57.5 C25.5,59.5 25.5,62.5 24.5,64.5 C17.5,61.5 12.5,57.5 10.5,51.5 L10.5,51.5 Z M22.5,187.5 C22.5,187.5 21.5,187.5 21.5,188.5 C21.5,188.5 21.5,188.5 21.5,188.5 C20.5,188.5 19.5,189.5 18.5,189.5 C15.5,191.5 12.5,193.5 9.5,193.5 C6.5,193.5 5.5,192.5 4.5,188.5 C6.5,188.5 7.5,187.5 8.5,186.5 L7.5,185.5 C6.5,186.5 5.5,186.5 4.5,187.5 L4.5,187.5 C3.5,187.5 3.5,187.5 3.5,187.5 C2.5,186.5 1.5,184.5 2.5,182.5 C3.5,181.5 5.5,179.5 6.5,177.5 C11.5,174.5 18.5,172.5 24.5,173.5 C24.5,175.5 24.5,178.5 24.5,180.5 C24.5,180.5 24.5,180.5 24.5,181.5 C24.5,182.5 24.5,183.5 24.5,183.5 L24.5,183.5 C23.5,186.5 23.5,187.5 22.5,187.5 L22.5,187.5 Z M52.5,338.5 C52.5,338.5 52.5,338.5 52.5,338.5 C48.5,341.5 47.5,342.5 44.5,344.5 C40.5,346.5 38.5,345.5 36.5,343.5 C36.5,343.5 36.5,342.5 35.5,342.5 C35.5,342.5 35.5,342.5 35.5,342.5 C35.5,342.5 35.5,342.5 35.5,342.5 C35.5,340.5 36.5,339.5 38.5,336.5 C38.5,336.5 38.5,336.5 38.5,336.5 C39.5,334.5 39.5,333.5 40.5,332.5 L38.5,331.5 C38.5,332.5 37.5,333.5 36.5,334.5 C36.5,335.5 36.5,335.5 36.5,335.5 C34.5,337.5 34.5,339.5 33.5,341.5 L33.5,341.5 C33.5,341.5 33.5,341.5 33.5,341.5 L33.5,341.5 C33.5,341.5 32.5,340.5 32.5,340.5 C28.5,334.5 31.5,329.5 40.5,322.5 C41.5,321.5 45.5,319.5 46.5,318.5 C46.5,318.5 46.5,318.5 46.5,318.5 C52.5,322.5 58.5,326.5 65.5,329.5 L65.5,329.5 C65.5,330.5 65.5,330.5 65.5,330.5 C61.5,331.5 58.5,333.5 52.5,338.5 L52.5,338.5 Z M219.5,327.5 C223.5,332.5 222.5,336.5 219.5,339.5 C218.5,338.5 218.5,338.5 218.5,337.5 C218.5,337.5 218.5,337.5 218.5,336.5 C216.5,333.5 215.5,331.5 214.5,329.5 L212.5,331.5 C214.5,332.5 214.5,334.5 216.5,337.5 C216.5,337.5 216.5,337.5 216.5,337.5 C216.5,339.5 217.5,339.5 217.5,340.5 C214.5,342.5 212.5,343.5 210.5,342.5 C208.5,341.5 206.5,339.5 202.5,335.5 C202.5,335.5 202.5,335.5 202.5,334.5 C202.5,334.5 202.5,334.5 202.5,334.5 C201.5,334.5 201.5,334.5 201.5,334.5 C198.5,329.5 195.5,327.5 193.5,326.5 C199.5,323.5 204.5,319.5 208.5,315.5 C212.5,318.5 217.5,322.5 219.5,327.5 L219.5,327.5 Z M221.5,294.5 C212.5,312.5 197.5,324.5 177.5,331.5 C159.5,337.5 139.5,340.5 118.5,339.5 C81.5,338.5 50.5,325.5 35.5,301.5 C25.5,285.5 21.5,265.5 22.5,237.5 C23.5,229.5 23.5,222.5 24.5,209.5 C25.6,195.5 25.5,191.5 26.5,185.5 C26.5,180.5 26.5,176.5 26.5,171.5 C26.5,162.5 25.6,155.5 24.5,139.5 C22.5,119.5 22.5,109.5 22.5,98.5 C22.5,83.5 24.5,70.5 28.5,58.5 C35.5,37.5 47.5,24.5 65.5,15.5 C80.5,7.5 99.5,4.5 123.5,2.5 C147.5,2.5 164.5,4.5 178.5,9.5 C196.5,16.5 209.5,27.5 218.5,44.5 C224.5,59.5 227.5,74.5 229.5,91.5 C230.5,105.5 230.5,115.5 230.5,140.5 L230.5,148.5 C231.5,160.5 231.5,168.5 231.5,177.5 C231.5,180.5 232.5,181.5 232.5,189.5 C233.5,206.5 234.5,215.5 234.5,225.5 C234.5,254.5 230.5,276.5 221.5,294.5 L221.5,294.5 Z M251.5,185.5 L251.5,185.5 C251.5,185.5 251.5,185.5 251.5,185.5 C249.5,185.5 249.5,184.5 248.5,184.5 L246.5,185.5 C247.5,186.5 248.5,186.5 250.5,187.5 C250.5,191.5 248.5,192.5 245.5,192.5 C243.5,192.5 239.5,190.5 236.5,188.5 C236.5,187.5 235.5,187.5 234.5,187.5 C234.5,187.5 234.5,187.5 234.5,187.5 C233.5,181.5 233.5,180.5 233.5,177.5 C233.5,175.5 233.5,173.5 233.5,171.5 C238.5,172.5 244.5,173.5 248.5,176.5 C250.5,177.5 251.5,179.5 252.5,181.5 C253.5,183.5 253.5,184.5 251.5,185.5 L251.5,185.5 Z" fill="#000000"></path>
		<g transform="translate(108.5, 96.5)">
			<path d="M29.5,7.5 C30.5,12.5 31.5,17.5 30.5,23.5 C28.5,25.5 26.5,26.5 23.5,27.5 C20.5,26.5 18.5,24.5 16.5,21.5 C15.5,15.5 16.5,9.5 17.5,3.5 C17.5,3.5 21.5,3.5 24.5,4.5 C27.5,5.5 29.5,7.5 29.5,7.5 L29.5,7.5 Z" fill="#FFFFFF"></path>
			<path d="M1.5,7.5 C-0.5,18.5 5.5,35.5 16.5,21.5 C15.5,15.5 16.5,9.5 16.5,3.5 C16.5,3.5 1.5,6.5 1.5,7.5 L1.5,7.5 Z" fill="#FFFFFF"></path>
			<path d="M31.5,11.5 C30.5,8.5 30.5,7.5 30.5,6.5 L30.5,5.5 L30.5,5.5 L17.5,1.5 L17.5,0.5 L16.5,0.5 L16.5,0.5 L16.5,1.5 L2.5,4.5 L1.5,4.5 L1.5,5.5 C-0.5,10.5 -0.5,18.5 2.5,23.5 C5.5,28.5 10.5,29.5 16.5,22.5 C17.5,25.6 20.5,27.5 23.5,28.5 L23.5,28.5 L24.5,27.5 C24.5,27.5 25.5,27.5 25.5,27.5 C25.5,27.5 25.5,27.5 25.5,27.5 C28.5,26.5 29.5,25.5 30.5,23.5 L31.5,23.5 L31.5,23.5 C31.5,21.5 31.5,19.5 31.5,17.5 C31.5,16.5 31.5,14.5 31.5,11.5 L31.5,11.5 Z M15.5,8.5 C15.5,9.5 15.5,10.5 14.5,11.5 C14.5,15.5 14.5,18.5 15.5,20.5 C10.5,26.5 6.5,26.5 4.5,22.5 C1.5,18.5 1.5,11.5 3.5,6.5 L15.5,3.5 C15.5,4.5 15.5,5.5 15.5,8.5 L15.5,8.5 Z M29.5,22.5 C28.5,24.5 27.5,24.5 25.5,25.5 C25.5,25.5 25.5,25.5 25.5,25.6 C24.5,25.5 24.5,25.5 23.5,26.5 C21.5,25.6 18.5,23.5 17.5,21.5 C17.5,18.5 17.5,15.5 17.5,12.5 C17.5,11.5 17.5,10.5 17.5,8.5 C18.5,6.5 18.5,4.5 18.5,3.5 L28.5,6.5 C28.5,8.5 29.5,9.5 29.5,12.5 C29.5,14.5 29.5,16.5 29.5,17.5 C29.5,19.5 29.5,21.5 29.5,22.5 L29.5,22.5 Z" fill="#000000"></path>
		</g>
		<g transform="translate(48.5, 21.5)">
			<path d="M2.5,38.5 C11.5,74.5 68.5,65.5 66.5,29.5 C63.5,-13.5 -6.5,-5.5 2.5,38.5" fill="#FFFFFF"></path>
			<path d="M67.5,29.5 C66.5,19.5 62.5,10.5 54.5,5.5 C47.5,1.5 38.5,-0.5 29.5,0.5 C21.5,1.5 12.5,5.5 7.5,12.5 C1.5,19.5 -0.5,28.5 1.5,38.5 L2.5,38.5 L1.5,38.5 C10.5,75.5 69.5,66.5 67.5,29.5 L67.5,29.5 Z M3.5,38.5 C1.5,28.5 3.5,19.5 8.5,13.5 C14.5,7.5 21.5,3.5 30.5,2.5 C38.5,1.5 47.5,3.5 53.5,7.5 C60.5,12.5 64.5,19.5 65.5,29.5 C67.5,64.5 12.5,72.5 3.5,38.5 L3.5,38.5 Z" fill="#000000"></path>
			<ellipse fill="#000000" cx="18.5" cy="32.5" rx="9.5" ry="10.5"></ellipse>
			<ellipse fill="#FFFFFF" cx="22.5" cy="35.5" rx="2.5" ry="2.5"></ellipse>
		</g>
		<g transform="translate(129.5, 18.5)">
			<path d="M1.5,35.5 C8.5,76.5 75.5,66.5 65.5,24.5 C56.5,-12.5 -1.5,-1.5 1.5,35.5" fill="#FFFFFF"></path>
			<path d="M66.5,24.5 C57.5,-13.5 -2.5,-3.5 0.5,36.5 L0.5,36.5 C3.5,55.5 20.5,65.5 39.5,62.5 C48.5,60.5 56.5,56.5 61.5,50.5 C66.5,43.5 68.5,34.5 66.5,24.5 L66.5,24.5 Z M59.5,49.5 C54.5,54.5 47.5,58.5 39.5,60.5 C21.5,63.5 5.5,53.5 2.5,35.5 C-0.5,-0.5 56.5,-10.5 64.5,25.5 C66.5,34.5 65.5,42.5 59.5,49.5 L59.5,49.5 Z" fill="#000000"></path>
			<ellipse fill="#000000" cx="17.5" cy="34.5" rx="9.5" ry="10.5"></ellipse>
			<ellipse fill="#FFFFFF" cx="22.5" cy="36.5" rx="2.5" ry="2.5"></ellipse>
		</g>
		<g transform="translate(99.5, 70.5)">
			<path d="M13.5,12.5 C5.5,13.5 -0.5,22.5 3.5,29.5 C8.5,39.5 20.5,28.5 27.5,29.5 C36.5,30.5 43.5,39.5 50.5,31.5 C58.5,23.5 47.5,15.5 38.5,11.5 L13.5,12.5 L13.5,12.5 Z" fill="#F6D2A2"></path>
			<path d="M51.6,19.2 C48.9,15.8 44.2,12.75 39.15,10.66 L38.9,10.56 L38.75,10.56 L13.25,11.55 C4.4,12.35 -1.99,22.6 2.3,30.4 C3.99,33.4 6.3,34.86 9.36,35.0 C11.6,35.2 14.0,34.7 17.7,33.4 C18.0,33.3 18.4,33.2 18.9,33.0 C23.9,31.3 25.9,30.8 27.9,31.1 L28.0,31.1 C30.4,31.1 32.4,31.8 36.16,33.3 C40.3,35.0 41.6,35.5 43.7,35.7 C46.6,35.9 49.1,34.9 51.4,32.4 C55.3,28.1 55.1,23.5 51.6,19.2 L51.6,19.2 Z M49.9,31.0 C48.0,33.1 46.1,33.8 43.8,33.7 C42.0,33.6 40.8,33.0 36.8,31.5 C32.9,29.8 30.7,29.2 28.1,29.1 C25.6,28.8 23.5,29.3 18.2,31.1 C17.7,31.3 17.3,31.4 17.0,31.5 C9.8,33.5 6.5,33.5 3.5,29.5 C0.5,22.5 5.5,14.5 13.5,13.5 L38.5,12.5 C43.5,14.5 47.5,17.5 50.5,20.5 C52.5,24.5 53.5,27.5 49.5,30.5 L49.5,30.5 Z" fill="#231F20"></path>
			<g transform="translate(11.5, 0.5)" fill="#000000">
				<path d="M28.5,8.5 C25.6,-3.5 -0.5,-1.5 0.5,12.5 C1.5,22.5 31.5,19.5 28.5,8.5 L28.5,8.5 Z"></path>
			</g>
		</g>
	</g>
</svg>
