<svg xmlns="http://www.w3.org/2000/svg" viewBox="0 0 70 70"><path fill="#f97a12" d="M17.7 54.6L0.8 41.2 9.2 25.6 33.3 35z"></path><path fill="#0e7af6" d="M70 18.7L68.7 59.2 41.8 70 25.6 59.6 49.3 35 38.9 12.3 48.2 1.1z"></path><path fill="#0e7af6" d="M70 18.7L48.7 43.9 38.9 12.3 48.2 1.1z"></path><path fill="#fe315d" d="M33.7 58.1L5.6 68.3 10.1 52.5 16 33.1 0 27.7 10.1 0 32.1 2.7 53.7 27.4z"></path><path fill="#000" d="M13.7 13.5H56.900000000000006V56.7H13.7z"></path><path fill="#FFF" d="M17.7 48.6H33.9V51.300000000000004H17.7z"></path><path fill="#FFF" d="M29.4 22.4L29.4 19.1 20.4 19.1 20.4 22.4 23 22.4 23 33.7 20.4 33.7 20.4 37 29.4 37 29.4 33.7 26.9 33.7 26.9 22.4z"></path><path d="M38,37.3c-1.4,0-2.6-0.3-3.5-0.8c-0.9-0.5-1.7-1.2-2.3-1.9l2.5-2.8c0.5,0.6,1,1,1.5,1.3 c0.5,0.3,1.1,0.5,1.7,0.5c0.7,0,1.3-0.2,1.8-0.7c0.4-0.5,0.6-1.2,0.6-2.3V19.1h4v11.7c0,1.1-0.1,2-0.4,2.8c-0.3,0.8-0.7,1.4-1.3,2 c-0.5,0.5-1.2,1-2,1.2C39.8,37.1,39,37.3,38,37.3" fill="#FFF"></path></svg> 