<svg
   xmlns="http://www.w3.org/2000/svg"
   version="1.1"
   width="32"
   height="32"
   viewBox="0 -50 450 330">
  <path
     d="m 337.38031,106.79338 c -0.54,0.328 -18.349,-2.66 -40.665,-4.171 -18.225,-1.235 -39.456,-1.188 -56.744,-0.017 -14.019,0.949 -32.438,-6.097999 -34.639,2.277 -8.238,31.351 -25.963,58.655 -48.511,79.928 -16.963,16.003 -36.377,28.138 -57.374999,35.615 -24.999,-12.842 -36.805,-41.404 -26.152,-66.447 8.449,-19.863 18.28,-41.74 0.13,-46.745 -13.213,-3.644 -20.468,9.013 -25.547,22.545 -9.73,25.923 -28.219,52.748 -33.488,84.521 -5.5619998,33.542 -0.018,69.147 28.992,89.253 67.561999,46.826 140.899999,-29.028 218.224999,-48.096 28.024,-6.911 58.785,-5.797 83.475,-20.097 18.541,-10.739 30.764,-28.535 34.233,-48.516 5.58,-32.137 -11.139,-64.066 -41.934,-80.05 z"
     stroke-width="20"
     stroke="#FFF"
     fill="#C21325" />
  <path
     d="m 205.33231,104.88238 c -8.238,31.351 -25.963,58.655 -48.511,79.928 -16.963,16.003 -36.377,28.138 -57.375999,35.615 -24.999,-12.842 -36.805,-41.404 -26.152,-66.447 8.449,-19.863 18.28,-41.74 0.13,-46.745 -13.213,-3.644 -20.468,9.013 -25.547,22.545 -9.73,25.923 -28.219,52.748 -33.488,84.521 -5.5619998,33.542 -0.018,69.147 28.992,89.253 67.561999,46.826 140.899999,-29.028 218.225999,-48.096 28.024,-6.911 58.785,-5.797 83.475,-20.097 18.541,-10.739 30.764,-28.535 34.233,-48.515 5.58,-32.137 -11.139,-64.066 -41.934,-80.05"
     stroke-width="20"
     stroke="#FFF"
     fill="none" />
  <path
     d="m 267.35331,-20.138619 54.321,110.812 65.093,-191.982001 h -238.989 l 64.943,191.641001 z"
     fill="#C21325" />
  <path
     d="m 267.35331,-20.138619 54.321,110.812 65.092,-191.982001 h -238.988 l 64.943,191.641001 z"
     stroke-width="20"
     stroke="#FFF"
     fill="none" />
  <circle
     fill="#C21325"
     r="40.945"
     cy="105.27439"
     cx="201.4493" />
  <circle
     stroke-width="20"
     stroke="#FFF"
     fill="none"
     r="40.945"
     cy="105.27439"
     cx="201.4493" />
  <circle
     stroke-width="20"
     stroke="#FFF"
     fill="#C21325"
     r="40.945"
     cy="105.27439"
     cx="334.83331" />
  <circle
     stroke-width="20"
     stroke="#FFF"
     fill="none"
     r="40.945"
     cy="105.27439"
     cx="334.83331" />
  <circle
     fill="#C21325"
     r="40.945"
     cy="105.5684"
     cx="67.56031" />
  <circle
     stroke-width="20"
     stroke="#FFF"
     fill="none"
     r="40.945"
     cy="105.5684"
     cx="67.56031" />
</svg>
