<svg width="16" height="16" viewBox="0 0 16 16" y="160" xmlns="http://www.w3.org/2000/svg"><defs><path id="ega" d="M0 0h16v16H0z"/></defs><g fill="none" fill-rule="evenodd"><mask id="egb" fill="#fff"><use xlink:href="#ega" xmlns:xlink="http://www.w3.org/1999/xlink"/></mask><g mask="url(#egb)"><path d="M8 16c-4.416 0-8-3.584-8-8s3.584-8 8-8 8 3.584 8 8-3.584 8-8 8z" fill="#D90007"/><path d="M12 10.436c0 .13-.105.23-.235.23h-1.01a.231.231 0 01-.235-.23v-3.02c0-.028-.035-.038-.05-.023l-2.135 2.08a.478.478 0 01-.67 0L5.53 7.393c-.015-.015-.05-.005-.05.024v3.019c0 .13-.105.23-.235.23h-1.01a.231.231 0 01-.235-.23V5.12c0-.13.105-.231.235-.231h.695c.125 0 .245.048.335.135l2.65 2.585a.127.127 0 00.17 0l2.65-2.585a.483.483 0 01.335-.135h.695c.13 0 .235.101.235.231v5.316" fill="#FFF"/></g></g></svg>