<svg
   xmlns="http://www.w3.org/2000/svg"
   xmlns:sodipodi="http://sodipodi.sourceforge.net/DTD/sodipodi-0.dtd"
   xmlns:inkscape="http://www.inkscape.org/namespaces/inkscape"
   viewBox="0 0 9 9"
   height="32"
   width="32">
  <defs
     id="defs626">
    <clipPath
       clipPathUnits="userSpaceOnUse"
       id="clipPath44">
      <path
         d="M 0,1024 H 1280 V 0 H 0 Z"
         id="path42"
         inkscape:connector-curvature="0" />
    </clipPath>
  </defs>

  <g
     id="layer1"
     inkscape:groupmode="layer"
     inkscape:label="Слой 1">
    <g
       transform="matrix(0.35277777,0,0,-0.35277777,-401.24389,314.93518)"
       id="g38">
      <g
         id="g40"
         clip-path="url(#clipPath44)">
        <g
           id="g46"
           transform="translate(1159.6709,887.3208)">
          <path
             d="m 0,0 -4.526,4.531 c -0.375,0.375 -0.98,0.375 -1.355,0 l -7.342,-7.336 -7.332,-7.325 c -0.378,-2.349 -0.766,-4.708 -1.144,-7.057 l 7.024,1.172 c 3.798,3.801 5.593,5.59 7.404,7.396 1.811,1.807 3.593,3.583 7.271,7.264 0.425,0.317 0.375,0.98 0,1.355 z"
             style="fill:none;stroke:#666666;stroke-width:1;stroke-linecap:round;stroke-linejoin:round;stroke-miterlimit:10;stroke-dasharray:none;stroke-opacity:1"
             id="path48"
             inkscape:connector-curvature="0" />
        </g>
        <g
           id="g50"
           transform="translate(1150.7803,888.6841)">
          <path
             d="M 0,0 5.603,-5.489"
             style="fill:none;stroke:#666666;stroke-width:1;stroke-linecap:round;stroke-linejoin:round;stroke-miterlimit:10;stroke-dasharray:none;stroke-opacity:1"
             id="path52"
             inkscape:connector-curvature="0" />
        </g>
        <g
           id="g54"
           transform="translate(1140.2119,877.3677)">
          <path
             d="M 0,0 5.107,-5.129"
             style="fill:none;stroke:#666666;stroke-width:1;stroke-linecap:round;stroke-linejoin:round;stroke-miterlimit:10;stroke-dasharray:none;stroke-opacity:1"
             id="path56"
             inkscape:connector-curvature="0" />
        </g>
      </g>
    </g>
  </g>
</svg>
