<svg xmlns="http://www.w3.org/2000/svg" preserveAspectRatio="xMinYMin" viewBox="0 0 770.91 998.52"><defs><style>.cls-1{fill:#474747;}</style></defs><path class="cls-1" d="M586.61,171.22V608.7L303.13,327V608.7H183.27V172.28l119.87.27L458.88,329.14V171.22Z" transform="translate(-0.32 -1.48)"></path><polygon class="cls-1" points="0 0 0 781.79 492.13 781.79 397.96 687.65 94.16 687.65 94.16 94.21 676.75 94.21 676.75 744.68 619.38 687.65 485.36 687.65 580.15 781.79 580.53 781.79 770.91 971.01 770.91 0 0 0"></polygon><path class="cls-1" d="M503.54,911a41.11,41.11,0,1,0,41.11-41.11A41.1,41.1,0,0,0,503.54,911ZM241.67,870.76H209.13V994.85H163V827.1l46.13.06H349.66l58.44.07a56,56,0,0,1,55.44,47.08,89.05,89.05,0,1,1-7.84,39.58,57.16,57.16,0,0,1-17.5,17.48l-4.36,2.7L495.11,995H441l-73.28-73.5c34.31-12.65,44.91-21,44.91-32.45a17.91,17.91,0,0,0-18-18.07H367.33l.07,123.87H321.11V870.76H287.6V994.85H241.67Zm-86.72-43.61V994.85l-108.67-108v108H.33V827.57l46,.09,59.69,60V827.15Z" transform="translate(-0.32 -1.48)"></path></svg>